<mxfile host="app.diagrams.net" modified="2022-10-17T14:23:17.166Z" agent="5.0 (Macintosh; Intel Mac OS X 10_15_7) AppleWebKit/537.36 (KHTML, like Gecko) Chrome/106.0.0.0 Safari/537.36" etag="AbdhXOye8BuaIrZtyiSA" version="20.4.1" type="github">
  <diagram id="ObROusXgH3hBW1gGpqjg" name="第 1 页">
    <mxGraphModel dx="1224" dy="660" grid="1" gridSize="10" guides="1" tooltips="1" connect="1" arrows="1" fold="1" page="1" pageScale="1" pageWidth="827" pageHeight="1169" math="0" shadow="0">
      <root>
        <mxCell id="0" />
        <mxCell id="1" parent="0" />
        <mxCell id="uUBAp2DgtA_l8BqaeNeY-1" value="" style="rounded=1;whiteSpace=wrap;html=1;" vertex="1" parent="1">
          <mxGeometry x="1020" y="817.5" width="130" height="230" as="geometry" />
        </mxCell>
        <mxCell id="uUBAp2DgtA_l8BqaeNeY-2" value="" style="rounded=1;whiteSpace=wrap;html=1;" vertex="1" parent="1">
          <mxGeometry x="489" y="820" width="130" height="230" as="geometry" />
        </mxCell>
        <mxCell id="uUBAp2DgtA_l8BqaeNeY-3" value="" style="rounded=1;whiteSpace=wrap;html=1;" vertex="1" parent="1">
          <mxGeometry x="740" y="821" width="130" height="230" as="geometry" />
        </mxCell>
        <mxCell id="uUBAp2DgtA_l8BqaeNeY-4" value="" style="rounded=1;whiteSpace=wrap;html=1;" vertex="1" parent="1">
          <mxGeometry x="210" y="820" width="130" height="230" as="geometry" />
        </mxCell>
        <mxCell id="uUBAp2DgtA_l8BqaeNeY-5" value="" style="rounded=1;whiteSpace=wrap;html=1;fillColor=#f5f5f5;fontColor=#333333;strokeColor=#666666;" vertex="1" parent="1">
          <mxGeometry x="350" y="820" width="127.5" height="230" as="geometry" />
        </mxCell>
        <mxCell id="uUBAp2DgtA_l8BqaeNeY-6" value="S" style="ellipse;whiteSpace=wrap;html=1;aspect=fixed;fillColor=#dae8fc;strokeColor=#6c8ebf;" vertex="1" parent="1">
          <mxGeometry x="220" y="860" width="30" height="30" as="geometry" />
        </mxCell>
        <mxCell id="uUBAp2DgtA_l8BqaeNeY-7" value="W" style="ellipse;whiteSpace=wrap;html=1;aspect=fixed;fillColor=#f8cecc;strokeColor=#b85450;" vertex="1" parent="1">
          <mxGeometry x="290" y="830" width="30" height="30" as="geometry" />
        </mxCell>
        <mxCell id="uUBAp2DgtA_l8BqaeNeY-8" value="W" style="ellipse;whiteSpace=wrap;html=1;aspect=fixed;fillColor=#f8cecc;strokeColor=#b85450;" vertex="1" parent="1">
          <mxGeometry x="290" y="890" width="30" height="30" as="geometry" />
        </mxCell>
        <mxCell id="uUBAp2DgtA_l8BqaeNeY-9" value="T1" style="ellipse;whiteSpace=wrap;html=1;aspect=fixed;fillColor=#d5e8d4;strokeColor=#82b366;" vertex="1" parent="1">
          <mxGeometry x="360" y="860" width="30" height="30" as="geometry" />
        </mxCell>
        <mxCell id="uUBAp2DgtA_l8BqaeNeY-10" value="S" style="ellipse;whiteSpace=wrap;html=1;aspect=fixed;fillColor=#dae8fc;strokeColor=#6c8ebf;" vertex="1" parent="1">
          <mxGeometry x="220" y="980" width="30" height="30" as="geometry" />
        </mxCell>
        <mxCell id="uUBAp2DgtA_l8BqaeNeY-11" value="W" style="ellipse;whiteSpace=wrap;html=1;aspect=fixed;fillColor=#f8cecc;strokeColor=#b85450;" vertex="1" parent="1">
          <mxGeometry x="290" y="950" width="30" height="30" as="geometry" />
        </mxCell>
        <mxCell id="uUBAp2DgtA_l8BqaeNeY-12" value="W" style="ellipse;whiteSpace=wrap;html=1;aspect=fixed;fillColor=#f8cecc;strokeColor=#b85450;" vertex="1" parent="1">
          <mxGeometry x="290" y="1010" width="30" height="30" as="geometry" />
        </mxCell>
        <mxCell id="uUBAp2DgtA_l8BqaeNeY-13" value="T3" style="ellipse;whiteSpace=wrap;html=1;aspect=fixed;fillColor=#d5e8d4;strokeColor=#82b366;" vertex="1" parent="1">
          <mxGeometry x="360" y="980" width="30" height="30" as="geometry" />
        </mxCell>
        <mxCell id="uUBAp2DgtA_l8BqaeNeY-14" value="" style="endArrow=none;html=1;rounded=0;" edge="1" parent="1" source="uUBAp2DgtA_l8BqaeNeY-6" target="uUBAp2DgtA_l8BqaeNeY-7">
          <mxGeometry width="50" height="50" relative="1" as="geometry">
            <mxPoint x="390" y="960" as="sourcePoint" />
            <mxPoint x="440" y="910" as="targetPoint" />
          </mxGeometry>
        </mxCell>
        <mxCell id="uUBAp2DgtA_l8BqaeNeY-15" value="" style="endArrow=none;html=1;rounded=0;" edge="1" parent="1" source="uUBAp2DgtA_l8BqaeNeY-6" target="uUBAp2DgtA_l8BqaeNeY-8">
          <mxGeometry width="50" height="50" relative="1" as="geometry">
            <mxPoint x="280" y="885" as="sourcePoint" />
            <mxPoint x="304.3933982822016" y="865.6066017177984" as="targetPoint" />
          </mxGeometry>
        </mxCell>
        <mxCell id="uUBAp2DgtA_l8BqaeNeY-16" value="" style="endArrow=none;html=1;rounded=0;" edge="1" parent="1" source="uUBAp2DgtA_l8BqaeNeY-10" target="uUBAp2DgtA_l8BqaeNeY-11">
          <mxGeometry width="50" height="50" relative="1" as="geometry">
            <mxPoint x="280" y="885" as="sourcePoint" />
            <mxPoint x="300" y="915" as="targetPoint" />
          </mxGeometry>
        </mxCell>
        <mxCell id="uUBAp2DgtA_l8BqaeNeY-17" value="" style="endArrow=none;html=1;rounded=0;" edge="1" parent="1" source="uUBAp2DgtA_l8BqaeNeY-10" target="uUBAp2DgtA_l8BqaeNeY-12">
          <mxGeometry width="50" height="50" relative="1" as="geometry">
            <mxPoint x="280" y="1005" as="sourcePoint" />
            <mxPoint x="304.3933982822016" y="985.6066017177984" as="targetPoint" />
          </mxGeometry>
        </mxCell>
        <mxCell id="uUBAp2DgtA_l8BqaeNeY-18" value="" style="endArrow=none;html=1;rounded=0;" edge="1" parent="1" source="uUBAp2DgtA_l8BqaeNeY-7" target="uUBAp2DgtA_l8BqaeNeY-9">
          <mxGeometry width="50" height="50" relative="1" as="geometry">
            <mxPoint x="280" y="885" as="sourcePoint" />
            <mxPoint x="304.3933982822016" y="865.6066017177984" as="targetPoint" />
          </mxGeometry>
        </mxCell>
        <mxCell id="uUBAp2DgtA_l8BqaeNeY-19" value="" style="endArrow=none;html=1;rounded=0;" edge="1" parent="1" source="uUBAp2DgtA_l8BqaeNeY-8" target="uUBAp2DgtA_l8BqaeNeY-9">
          <mxGeometry width="50" height="50" relative="1" as="geometry">
            <mxPoint x="330" y="855" as="sourcePoint" />
            <mxPoint x="370" y="885" as="targetPoint" />
          </mxGeometry>
        </mxCell>
        <mxCell id="uUBAp2DgtA_l8BqaeNeY-20" value="" style="endArrow=none;html=1;rounded=0;" edge="1" parent="1" source="uUBAp2DgtA_l8BqaeNeY-11" target="uUBAp2DgtA_l8BqaeNeY-13">
          <mxGeometry width="50" height="50" relative="1" as="geometry">
            <mxPoint x="330" y="915" as="sourcePoint" />
            <mxPoint x="370" y="885" as="targetPoint" />
          </mxGeometry>
        </mxCell>
        <mxCell id="uUBAp2DgtA_l8BqaeNeY-21" value="" style="endArrow=none;html=1;rounded=0;exitX=1;exitY=0.5;exitDx=0;exitDy=0;" edge="1" parent="1" source="uUBAp2DgtA_l8BqaeNeY-12" target="uUBAp2DgtA_l8BqaeNeY-13">
          <mxGeometry width="50" height="50" relative="1" as="geometry">
            <mxPoint x="330" y="975" as="sourcePoint" />
            <mxPoint x="370" y="1005" as="targetPoint" />
          </mxGeometry>
        </mxCell>
        <mxCell id="uUBAp2DgtA_l8BqaeNeY-22" value="T2" style="ellipse;whiteSpace=wrap;html=1;aspect=fixed;fillColor=#d5e8d4;strokeColor=#82b366;" vertex="1" parent="1">
          <mxGeometry x="440" y="860" width="30" height="30" as="geometry" />
        </mxCell>
        <mxCell id="uUBAp2DgtA_l8BqaeNeY-23" value="W" style="ellipse;whiteSpace=wrap;html=1;aspect=fixed;fillColor=#f8cecc;strokeColor=#b85450;" vertex="1" parent="1">
          <mxGeometry x="510" y="830" width="30" height="30" as="geometry" />
        </mxCell>
        <mxCell id="uUBAp2DgtA_l8BqaeNeY-24" value="W" style="ellipse;whiteSpace=wrap;html=1;aspect=fixed;fillColor=#f8cecc;strokeColor=#b85450;" vertex="1" parent="1">
          <mxGeometry x="510" y="890" width="30" height="30" as="geometry" />
        </mxCell>
        <mxCell id="uUBAp2DgtA_l8BqaeNeY-25" value="S" style="ellipse;whiteSpace=wrap;html=1;aspect=fixed;fillColor=#dae8fc;strokeColor=#6c8ebf;" vertex="1" parent="1">
          <mxGeometry x="580" y="860" width="30" height="30" as="geometry" />
        </mxCell>
        <mxCell id="uUBAp2DgtA_l8BqaeNeY-26" value="" style="endArrow=none;html=1;rounded=0;" edge="1" parent="1" source="uUBAp2DgtA_l8BqaeNeY-22" target="uUBAp2DgtA_l8BqaeNeY-23">
          <mxGeometry width="50" height="50" relative="1" as="geometry">
            <mxPoint x="610" y="960" as="sourcePoint" />
            <mxPoint x="660" y="910" as="targetPoint" />
          </mxGeometry>
        </mxCell>
        <mxCell id="uUBAp2DgtA_l8BqaeNeY-27" value="" style="endArrow=none;html=1;rounded=0;" edge="1" parent="1" source="uUBAp2DgtA_l8BqaeNeY-22" target="uUBAp2DgtA_l8BqaeNeY-24">
          <mxGeometry width="50" height="50" relative="1" as="geometry">
            <mxPoint x="500" y="885" as="sourcePoint" />
            <mxPoint x="524.3933982822016" y="865.6066017177984" as="targetPoint" />
          </mxGeometry>
        </mxCell>
        <mxCell id="uUBAp2DgtA_l8BqaeNeY-28" value="" style="endArrow=none;html=1;rounded=0;" edge="1" parent="1" source="uUBAp2DgtA_l8BqaeNeY-23" target="uUBAp2DgtA_l8BqaeNeY-25">
          <mxGeometry width="50" height="50" relative="1" as="geometry">
            <mxPoint x="500" y="885" as="sourcePoint" />
            <mxPoint x="524.3933982822016" y="865.6066017177984" as="targetPoint" />
          </mxGeometry>
        </mxCell>
        <mxCell id="uUBAp2DgtA_l8BqaeNeY-29" value="" style="endArrow=none;html=1;rounded=0;" edge="1" parent="1" source="uUBAp2DgtA_l8BqaeNeY-24" target="uUBAp2DgtA_l8BqaeNeY-25">
          <mxGeometry width="50" height="50" relative="1" as="geometry">
            <mxPoint x="550" y="855" as="sourcePoint" />
            <mxPoint x="590" y="885" as="targetPoint" />
          </mxGeometry>
        </mxCell>
        <mxCell id="uUBAp2DgtA_l8BqaeNeY-30" value="T4" style="ellipse;whiteSpace=wrap;html=1;aspect=fixed;fillColor=#d5e8d4;strokeColor=#82b366;" vertex="1" parent="1">
          <mxGeometry x="443" y="980" width="30" height="30" as="geometry" />
        </mxCell>
        <mxCell id="uUBAp2DgtA_l8BqaeNeY-31" value="W" style="ellipse;whiteSpace=wrap;html=1;aspect=fixed;fillColor=#f8cecc;strokeColor=#b85450;" vertex="1" parent="1">
          <mxGeometry x="513" y="950" width="30" height="30" as="geometry" />
        </mxCell>
        <mxCell id="uUBAp2DgtA_l8BqaeNeY-32" value="W" style="ellipse;whiteSpace=wrap;html=1;aspect=fixed;fillColor=#f8cecc;strokeColor=#b85450;" vertex="1" parent="1">
          <mxGeometry x="513" y="1010" width="30" height="30" as="geometry" />
        </mxCell>
        <mxCell id="uUBAp2DgtA_l8BqaeNeY-33" value="S" style="ellipse;whiteSpace=wrap;html=1;aspect=fixed;fillColor=#dae8fc;strokeColor=#6c8ebf;" vertex="1" parent="1">
          <mxGeometry x="583" y="980" width="30" height="30" as="geometry" />
        </mxCell>
        <mxCell id="uUBAp2DgtA_l8BqaeNeY-34" value="" style="endArrow=none;html=1;rounded=0;" edge="1" parent="1" source="uUBAp2DgtA_l8BqaeNeY-30" target="uUBAp2DgtA_l8BqaeNeY-31">
          <mxGeometry width="50" height="50" relative="1" as="geometry">
            <mxPoint x="613" y="1080" as="sourcePoint" />
            <mxPoint x="663" y="1030" as="targetPoint" />
          </mxGeometry>
        </mxCell>
        <mxCell id="uUBAp2DgtA_l8BqaeNeY-35" value="" style="endArrow=none;html=1;rounded=0;" edge="1" parent="1" source="uUBAp2DgtA_l8BqaeNeY-30" target="uUBAp2DgtA_l8BqaeNeY-32">
          <mxGeometry width="50" height="50" relative="1" as="geometry">
            <mxPoint x="503" y="1005" as="sourcePoint" />
            <mxPoint x="527.3933982822016" y="985.6066017177984" as="targetPoint" />
          </mxGeometry>
        </mxCell>
        <mxCell id="uUBAp2DgtA_l8BqaeNeY-36" value="" style="endArrow=none;html=1;rounded=0;" edge="1" parent="1" source="uUBAp2DgtA_l8BqaeNeY-31" target="uUBAp2DgtA_l8BqaeNeY-33">
          <mxGeometry width="50" height="50" relative="1" as="geometry">
            <mxPoint x="503" y="1005" as="sourcePoint" />
            <mxPoint x="527.3933982822016" y="985.6066017177984" as="targetPoint" />
          </mxGeometry>
        </mxCell>
        <mxCell id="uUBAp2DgtA_l8BqaeNeY-37" value="" style="endArrow=none;html=1;rounded=0;" edge="1" parent="1" source="uUBAp2DgtA_l8BqaeNeY-32" target="uUBAp2DgtA_l8BqaeNeY-33">
          <mxGeometry width="50" height="50" relative="1" as="geometry">
            <mxPoint x="553" y="975" as="sourcePoint" />
            <mxPoint x="593" y="1005" as="targetPoint" />
          </mxGeometry>
        </mxCell>
        <mxCell id="uUBAp2DgtA_l8BqaeNeY-38" value="" style="endArrow=none;dashed=1;html=1;rounded=0;" edge="1" parent="1" source="uUBAp2DgtA_l8BqaeNeY-9" target="uUBAp2DgtA_l8BqaeNeY-22">
          <mxGeometry width="50" height="50" relative="1" as="geometry">
            <mxPoint x="390" y="920" as="sourcePoint" />
            <mxPoint x="440" y="870" as="targetPoint" />
          </mxGeometry>
        </mxCell>
        <mxCell id="uUBAp2DgtA_l8BqaeNeY-39" value="" style="endArrow=none;dashed=1;html=1;rounded=0;" edge="1" parent="1" source="uUBAp2DgtA_l8BqaeNeY-9" target="uUBAp2DgtA_l8BqaeNeY-30">
          <mxGeometry width="50" height="50" relative="1" as="geometry">
            <mxPoint x="400" y="885" as="sourcePoint" />
            <mxPoint x="450" y="885" as="targetPoint" />
          </mxGeometry>
        </mxCell>
        <mxCell id="uUBAp2DgtA_l8BqaeNeY-40" value="" style="endArrow=none;dashed=1;html=1;rounded=0;" edge="1" parent="1" source="uUBAp2DgtA_l8BqaeNeY-9" target="uUBAp2DgtA_l8BqaeNeY-13">
          <mxGeometry width="50" height="50" relative="1" as="geometry">
            <mxPoint x="410" y="895" as="sourcePoint" />
            <mxPoint x="460" y="895" as="targetPoint" />
          </mxGeometry>
        </mxCell>
        <mxCell id="uUBAp2DgtA_l8BqaeNeY-41" value="" style="endArrow=none;dashed=1;html=1;rounded=0;" edge="1" parent="1" source="uUBAp2DgtA_l8BqaeNeY-30" target="uUBAp2DgtA_l8BqaeNeY-22">
          <mxGeometry width="50" height="50" relative="1" as="geometry">
            <mxPoint x="400" y="885" as="sourcePoint" />
            <mxPoint x="450" y="885" as="targetPoint" />
          </mxGeometry>
        </mxCell>
        <mxCell id="uUBAp2DgtA_l8BqaeNeY-42" value="" style="endArrow=none;dashed=1;html=1;rounded=0;" edge="1" parent="1" source="uUBAp2DgtA_l8BqaeNeY-13" target="uUBAp2DgtA_l8BqaeNeY-22">
          <mxGeometry width="50" height="50" relative="1" as="geometry">
            <mxPoint x="467.64295833080564" y="990.0042498938383" as="sourcePoint" />
            <mxPoint x="465.3124322052274" y="899.9967458509236" as="targetPoint" />
          </mxGeometry>
        </mxCell>
        <mxCell id="uUBAp2DgtA_l8BqaeNeY-43" value="" style="endArrow=none;dashed=1;html=1;rounded=0;" edge="1" parent="1" source="uUBAp2DgtA_l8BqaeNeY-13" target="uUBAp2DgtA_l8BqaeNeY-30">
          <mxGeometry width="50" height="50" relative="1" as="geometry">
            <mxPoint x="393.28692258657156" y="992.4969238167519" as="sourcePoint" />
            <mxPoint x="456.67949705662136" y="897.4807544150678" as="targetPoint" />
          </mxGeometry>
        </mxCell>
        <mxCell id="uUBAp2DgtA_l8BqaeNeY-44" value="" style="rounded=1;whiteSpace=wrap;html=1;fillColor=#f5f5f5;fontColor=#333333;strokeColor=#666666;" vertex="1" parent="1">
          <mxGeometry x="880" y="821" width="127.5" height="223" as="geometry" />
        </mxCell>
        <mxCell id="uUBAp2DgtA_l8BqaeNeY-45" value="S" style="ellipse;whiteSpace=wrap;html=1;aspect=fixed;fillColor=#dae8fc;strokeColor=#6c8ebf;" vertex="1" parent="1">
          <mxGeometry x="750" y="854" width="30" height="30" as="geometry" />
        </mxCell>
        <mxCell id="uUBAp2DgtA_l8BqaeNeY-46" value="W" style="ellipse;whiteSpace=wrap;html=1;aspect=fixed;fillColor=#f8cecc;strokeColor=#b85450;" vertex="1" parent="1">
          <mxGeometry x="820" y="824" width="30" height="30" as="geometry" />
        </mxCell>
        <mxCell id="uUBAp2DgtA_l8BqaeNeY-47" value="W" style="ellipse;whiteSpace=wrap;html=1;aspect=fixed;fillColor=#f8cecc;strokeColor=#b85450;" vertex="1" parent="1">
          <mxGeometry x="820" y="884" width="30" height="30" as="geometry" />
        </mxCell>
        <mxCell id="uUBAp2DgtA_l8BqaeNeY-48" value="T1" style="ellipse;whiteSpace=wrap;html=1;aspect=fixed;fillColor=#d5e8d4;strokeColor=#82b366;" vertex="1" parent="1">
          <mxGeometry x="890" y="854" width="30" height="30" as="geometry" />
        </mxCell>
        <mxCell id="uUBAp2DgtA_l8BqaeNeY-49" value="S" style="ellipse;whiteSpace=wrap;html=1;aspect=fixed;fillColor=#dae8fc;strokeColor=#6c8ebf;" vertex="1" parent="1">
          <mxGeometry x="750" y="974" width="30" height="30" as="geometry" />
        </mxCell>
        <mxCell id="uUBAp2DgtA_l8BqaeNeY-50" value="W" style="ellipse;whiteSpace=wrap;html=1;aspect=fixed;fillColor=#f8cecc;strokeColor=#b85450;" vertex="1" parent="1">
          <mxGeometry x="820" y="944" width="30" height="30" as="geometry" />
        </mxCell>
        <mxCell id="uUBAp2DgtA_l8BqaeNeY-51" value="W" style="ellipse;whiteSpace=wrap;html=1;aspect=fixed;fillColor=#f8cecc;strokeColor=#b85450;" vertex="1" parent="1">
          <mxGeometry x="820" y="1004" width="30" height="30" as="geometry" />
        </mxCell>
        <mxCell id="uUBAp2DgtA_l8BqaeNeY-52" value="T3" style="ellipse;whiteSpace=wrap;html=1;aspect=fixed;fillColor=#d5e8d4;strokeColor=#82b366;" vertex="1" parent="1">
          <mxGeometry x="890" y="974" width="30" height="30" as="geometry" />
        </mxCell>
        <mxCell id="uUBAp2DgtA_l8BqaeNeY-53" value="" style="endArrow=none;html=1;rounded=0;" edge="1" parent="1" source="uUBAp2DgtA_l8BqaeNeY-45" target="uUBAp2DgtA_l8BqaeNeY-46">
          <mxGeometry width="50" height="50" relative="1" as="geometry">
            <mxPoint x="920" y="954" as="sourcePoint" />
            <mxPoint x="970" y="904" as="targetPoint" />
          </mxGeometry>
        </mxCell>
        <mxCell id="uUBAp2DgtA_l8BqaeNeY-54" value="" style="endArrow=none;html=1;rounded=0;" edge="1" parent="1" source="uUBAp2DgtA_l8BqaeNeY-45" target="uUBAp2DgtA_l8BqaeNeY-47">
          <mxGeometry width="50" height="50" relative="1" as="geometry">
            <mxPoint x="810" y="879" as="sourcePoint" />
            <mxPoint x="834.3933982822016" y="859.6066017177984" as="targetPoint" />
          </mxGeometry>
        </mxCell>
        <mxCell id="uUBAp2DgtA_l8BqaeNeY-55" value="" style="endArrow=none;html=1;rounded=0;" edge="1" parent="1" source="uUBAp2DgtA_l8BqaeNeY-49" target="uUBAp2DgtA_l8BqaeNeY-50">
          <mxGeometry width="50" height="50" relative="1" as="geometry">
            <mxPoint x="810" y="879" as="sourcePoint" />
            <mxPoint x="830" y="909" as="targetPoint" />
          </mxGeometry>
        </mxCell>
        <mxCell id="uUBAp2DgtA_l8BqaeNeY-56" value="" style="endArrow=none;html=1;rounded=0;" edge="1" parent="1" source="uUBAp2DgtA_l8BqaeNeY-49" target="uUBAp2DgtA_l8BqaeNeY-51">
          <mxGeometry width="50" height="50" relative="1" as="geometry">
            <mxPoint x="810" y="999" as="sourcePoint" />
            <mxPoint x="834.3933982822016" y="979.6066017177984" as="targetPoint" />
          </mxGeometry>
        </mxCell>
        <mxCell id="uUBAp2DgtA_l8BqaeNeY-57" value="" style="endArrow=none;html=1;rounded=0;" edge="1" parent="1" source="uUBAp2DgtA_l8BqaeNeY-46" target="uUBAp2DgtA_l8BqaeNeY-48">
          <mxGeometry width="50" height="50" relative="1" as="geometry">
            <mxPoint x="810" y="879" as="sourcePoint" />
            <mxPoint x="834.3933982822016" y="859.6066017177984" as="targetPoint" />
          </mxGeometry>
        </mxCell>
        <mxCell id="uUBAp2DgtA_l8BqaeNeY-58" value="" style="endArrow=none;html=1;rounded=0;" edge="1" parent="1" source="uUBAp2DgtA_l8BqaeNeY-47" target="uUBAp2DgtA_l8BqaeNeY-48">
          <mxGeometry width="50" height="50" relative="1" as="geometry">
            <mxPoint x="860" y="849" as="sourcePoint" />
            <mxPoint x="900" y="879" as="targetPoint" />
          </mxGeometry>
        </mxCell>
        <mxCell id="uUBAp2DgtA_l8BqaeNeY-59" value="" style="endArrow=none;html=1;rounded=0;" edge="1" parent="1" source="uUBAp2DgtA_l8BqaeNeY-50" target="uUBAp2DgtA_l8BqaeNeY-52">
          <mxGeometry width="50" height="50" relative="1" as="geometry">
            <mxPoint x="860" y="909" as="sourcePoint" />
            <mxPoint x="900" y="879" as="targetPoint" />
          </mxGeometry>
        </mxCell>
        <mxCell id="uUBAp2DgtA_l8BqaeNeY-60" value="" style="endArrow=none;html=1;rounded=0;exitX=1;exitY=0.5;exitDx=0;exitDy=0;" edge="1" parent="1" source="uUBAp2DgtA_l8BqaeNeY-51" target="uUBAp2DgtA_l8BqaeNeY-52">
          <mxGeometry width="50" height="50" relative="1" as="geometry">
            <mxPoint x="860" y="969" as="sourcePoint" />
            <mxPoint x="900" y="999" as="targetPoint" />
          </mxGeometry>
        </mxCell>
        <mxCell id="uUBAp2DgtA_l8BqaeNeY-61" value="T2" style="ellipse;whiteSpace=wrap;html=1;aspect=fixed;fillColor=#d5e8d4;strokeColor=#82b366;" vertex="1" parent="1">
          <mxGeometry x="970" y="854" width="30" height="30" as="geometry" />
        </mxCell>
        <mxCell id="uUBAp2DgtA_l8BqaeNeY-62" value="W" style="ellipse;whiteSpace=wrap;html=1;aspect=fixed;fillColor=#f8cecc;strokeColor=#b85450;" vertex="1" parent="1">
          <mxGeometry x="1040" y="824" width="30" height="30" as="geometry" />
        </mxCell>
        <mxCell id="uUBAp2DgtA_l8BqaeNeY-63" value="W" style="ellipse;whiteSpace=wrap;html=1;aspect=fixed;fillColor=#f8cecc;strokeColor=#b85450;" vertex="1" parent="1">
          <mxGeometry x="1040" y="884" width="30" height="30" as="geometry" />
        </mxCell>
        <mxCell id="uUBAp2DgtA_l8BqaeNeY-64" value="S" style="ellipse;whiteSpace=wrap;html=1;aspect=fixed;fillColor=#dae8fc;strokeColor=#6c8ebf;" vertex="1" parent="1">
          <mxGeometry x="1110" y="854" width="30" height="30" as="geometry" />
        </mxCell>
        <mxCell id="uUBAp2DgtA_l8BqaeNeY-65" value="" style="endArrow=none;html=1;rounded=0;" edge="1" parent="1" source="uUBAp2DgtA_l8BqaeNeY-61" target="uUBAp2DgtA_l8BqaeNeY-62">
          <mxGeometry width="50" height="50" relative="1" as="geometry">
            <mxPoint x="1140" y="954" as="sourcePoint" />
            <mxPoint x="1190" y="904" as="targetPoint" />
          </mxGeometry>
        </mxCell>
        <mxCell id="uUBAp2DgtA_l8BqaeNeY-66" value="" style="endArrow=none;html=1;rounded=0;" edge="1" parent="1" source="uUBAp2DgtA_l8BqaeNeY-61" target="uUBAp2DgtA_l8BqaeNeY-63">
          <mxGeometry width="50" height="50" relative="1" as="geometry">
            <mxPoint x="1030" y="879" as="sourcePoint" />
            <mxPoint x="1054.3933982822016" y="859.6066017177984" as="targetPoint" />
          </mxGeometry>
        </mxCell>
        <mxCell id="uUBAp2DgtA_l8BqaeNeY-67" value="" style="endArrow=none;html=1;rounded=0;" edge="1" parent="1" source="uUBAp2DgtA_l8BqaeNeY-62" target="uUBAp2DgtA_l8BqaeNeY-64">
          <mxGeometry width="50" height="50" relative="1" as="geometry">
            <mxPoint x="1030" y="879" as="sourcePoint" />
            <mxPoint x="1054.3933982822016" y="859.6066017177984" as="targetPoint" />
          </mxGeometry>
        </mxCell>
        <mxCell id="uUBAp2DgtA_l8BqaeNeY-68" value="" style="endArrow=none;html=1;rounded=0;" edge="1" parent="1" source="uUBAp2DgtA_l8BqaeNeY-63" target="uUBAp2DgtA_l8BqaeNeY-64">
          <mxGeometry width="50" height="50" relative="1" as="geometry">
            <mxPoint x="1080" y="849" as="sourcePoint" />
            <mxPoint x="1120" y="879" as="targetPoint" />
          </mxGeometry>
        </mxCell>
        <mxCell id="uUBAp2DgtA_l8BqaeNeY-69" value="T4" style="ellipse;whiteSpace=wrap;html=1;aspect=fixed;fillColor=#d5e8d4;strokeColor=#82b366;" vertex="1" parent="1">
          <mxGeometry x="973" y="974" width="30" height="30" as="geometry" />
        </mxCell>
        <mxCell id="uUBAp2DgtA_l8BqaeNeY-70" value="W" style="ellipse;whiteSpace=wrap;html=1;aspect=fixed;fillColor=#f8cecc;strokeColor=#b85450;" vertex="1" parent="1">
          <mxGeometry x="1043" y="944" width="30" height="30" as="geometry" />
        </mxCell>
        <mxCell id="uUBAp2DgtA_l8BqaeNeY-71" value="W" style="ellipse;whiteSpace=wrap;html=1;aspect=fixed;fillColor=#f8cecc;strokeColor=#b85450;" vertex="1" parent="1">
          <mxGeometry x="1043" y="1004" width="30" height="30" as="geometry" />
        </mxCell>
        <mxCell id="uUBAp2DgtA_l8BqaeNeY-72" value="S" style="ellipse;whiteSpace=wrap;html=1;aspect=fixed;fillColor=#dae8fc;strokeColor=#6c8ebf;" vertex="1" parent="1">
          <mxGeometry x="1113" y="974" width="30" height="30" as="geometry" />
        </mxCell>
        <mxCell id="uUBAp2DgtA_l8BqaeNeY-73" value="" style="endArrow=none;html=1;rounded=0;" edge="1" parent="1" source="uUBAp2DgtA_l8BqaeNeY-69" target="uUBAp2DgtA_l8BqaeNeY-70">
          <mxGeometry width="50" height="50" relative="1" as="geometry">
            <mxPoint x="1143" y="1074" as="sourcePoint" />
            <mxPoint x="1193" y="1024" as="targetPoint" />
          </mxGeometry>
        </mxCell>
        <mxCell id="uUBAp2DgtA_l8BqaeNeY-74" value="" style="endArrow=none;html=1;rounded=0;" edge="1" parent="1" source="uUBAp2DgtA_l8BqaeNeY-69" target="uUBAp2DgtA_l8BqaeNeY-71">
          <mxGeometry width="50" height="50" relative="1" as="geometry">
            <mxPoint x="1033" y="999" as="sourcePoint" />
            <mxPoint x="1057.3933982822016" y="979.6066017177984" as="targetPoint" />
          </mxGeometry>
        </mxCell>
        <mxCell id="uUBAp2DgtA_l8BqaeNeY-75" value="" style="endArrow=none;html=1;rounded=0;" edge="1" parent="1" source="uUBAp2DgtA_l8BqaeNeY-70" target="uUBAp2DgtA_l8BqaeNeY-72">
          <mxGeometry width="50" height="50" relative="1" as="geometry">
            <mxPoint x="1033" y="999" as="sourcePoint" />
            <mxPoint x="1057.3933982822016" y="979.6066017177984" as="targetPoint" />
          </mxGeometry>
        </mxCell>
        <mxCell id="uUBAp2DgtA_l8BqaeNeY-76" value="" style="endArrow=none;html=1;rounded=0;" edge="1" parent="1" source="uUBAp2DgtA_l8BqaeNeY-71" target="uUBAp2DgtA_l8BqaeNeY-72">
          <mxGeometry width="50" height="50" relative="1" as="geometry">
            <mxPoint x="1083" y="969" as="sourcePoint" />
            <mxPoint x="1123" y="999" as="targetPoint" />
          </mxGeometry>
        </mxCell>
        <mxCell id="uUBAp2DgtA_l8BqaeNeY-77" value="" style="endArrow=none;dashed=1;html=1;rounded=0;" edge="1" parent="1" source="uUBAp2DgtA_l8BqaeNeY-48" target="uUBAp2DgtA_l8BqaeNeY-61">
          <mxGeometry width="50" height="50" relative="1" as="geometry">
            <mxPoint x="920" y="914" as="sourcePoint" />
            <mxPoint x="970" y="864" as="targetPoint" />
          </mxGeometry>
        </mxCell>
        <mxCell id="uUBAp2DgtA_l8BqaeNeY-78" value="" style="endArrow=none;dashed=1;html=1;rounded=0;" edge="1" parent="1" source="uUBAp2DgtA_l8BqaeNeY-48" target="uUBAp2DgtA_l8BqaeNeY-69">
          <mxGeometry width="50" height="50" relative="1" as="geometry">
            <mxPoint x="930" y="879" as="sourcePoint" />
            <mxPoint x="980" y="879" as="targetPoint" />
          </mxGeometry>
        </mxCell>
        <mxCell id="uUBAp2DgtA_l8BqaeNeY-79" value="" style="endArrow=none;dashed=1;html=1;rounded=0;" edge="1" parent="1" source="uUBAp2DgtA_l8BqaeNeY-48" target="uUBAp2DgtA_l8BqaeNeY-52">
          <mxGeometry width="50" height="50" relative="1" as="geometry">
            <mxPoint x="940" y="889" as="sourcePoint" />
            <mxPoint x="990" y="889" as="targetPoint" />
          </mxGeometry>
        </mxCell>
        <mxCell id="uUBAp2DgtA_l8BqaeNeY-80" value="" style="endArrow=none;dashed=1;html=1;rounded=0;" edge="1" parent="1" source="uUBAp2DgtA_l8BqaeNeY-69" target="uUBAp2DgtA_l8BqaeNeY-61">
          <mxGeometry width="50" height="50" relative="1" as="geometry">
            <mxPoint x="930" y="879" as="sourcePoint" />
            <mxPoint x="980" y="879" as="targetPoint" />
          </mxGeometry>
        </mxCell>
        <mxCell id="uUBAp2DgtA_l8BqaeNeY-81" value="" style="endArrow=none;dashed=1;html=1;rounded=0;" edge="1" parent="1" source="uUBAp2DgtA_l8BqaeNeY-52" target="uUBAp2DgtA_l8BqaeNeY-61">
          <mxGeometry width="50" height="50" relative="1" as="geometry">
            <mxPoint x="997.6429583308056" y="984.0042498938383" as="sourcePoint" />
            <mxPoint x="995.3124322052274" y="893.9967458509236" as="targetPoint" />
          </mxGeometry>
        </mxCell>
        <mxCell id="uUBAp2DgtA_l8BqaeNeY-82" value="" style="endArrow=none;dashed=1;html=1;rounded=0;" edge="1" parent="1" source="uUBAp2DgtA_l8BqaeNeY-52" target="uUBAp2DgtA_l8BqaeNeY-69">
          <mxGeometry width="50" height="50" relative="1" as="geometry">
            <mxPoint x="923.2869225865716" y="986.4969238167519" as="sourcePoint" />
            <mxPoint x="986.6794970566214" y="891.4807544150678" as="targetPoint" />
          </mxGeometry>
        </mxCell>
        <mxCell id="uUBAp2DgtA_l8BqaeNeY-83" value="Non-linear&lt;br&gt;Activation" style="rounded=1;whiteSpace=wrap;html=1;" vertex="1" parent="1">
          <mxGeometry x="650" y="820" width="60" height="230" as="geometry" />
        </mxCell>
        <mxCell id="uUBAp2DgtA_l8BqaeNeY-84" value="Softamx" style="rounded=1;whiteSpace=wrap;html=1;" vertex="1" parent="1">
          <mxGeometry x="1003" y="1108" width="60" height="182" as="geometry" />
        </mxCell>
        <mxCell id="uUBAp2DgtA_l8BqaeNeY-85" value="" style="shape=datastore;whiteSpace=wrap;html=1;fillColor=#dae8fc;strokeColor=#6c8ebf;" vertex="1" parent="1">
          <mxGeometry x="90" y="830" width="60" height="60" as="geometry" />
        </mxCell>
        <mxCell id="uUBAp2DgtA_l8BqaeNeY-86" value="" style="shape=datastore;whiteSpace=wrap;html=1;fillColor=#dae8fc;strokeColor=#6c8ebf;" vertex="1" parent="1">
          <mxGeometry x="90" y="980" width="60" height="60" as="geometry" />
        </mxCell>
        <mxCell id="uUBAp2DgtA_l8BqaeNeY-87" value="" style="shape=datastore;whiteSpace=wrap;html=1;fillColor=#dae8fc;strokeColor=#6c8ebf;" vertex="1" parent="1">
          <mxGeometry x="90" y="1173" width="60" height="60" as="geometry" />
        </mxCell>
        <mxCell id="uUBAp2DgtA_l8BqaeNeY-88" value="S" style="ellipse;whiteSpace=wrap;html=1;aspect=fixed;fillColor=#dae8fc;strokeColor=#6c8ebf;" vertex="1" parent="1">
          <mxGeometry x="1117.5" y="1101" width="30" height="30" as="geometry" />
        </mxCell>
        <mxCell id="uUBAp2DgtA_l8BqaeNeY-89" value="S" style="ellipse;whiteSpace=wrap;html=1;aspect=fixed;fillColor=#dae8fc;strokeColor=#6c8ebf;" vertex="1" parent="1">
          <mxGeometry x="1117.5" y="1151" width="30" height="30" as="geometry" />
        </mxCell>
        <mxCell id="uUBAp2DgtA_l8BqaeNeY-90" value="S" style="ellipse;whiteSpace=wrap;html=1;aspect=fixed;fillColor=#dae8fc;strokeColor=#6c8ebf;" vertex="1" parent="1">
          <mxGeometry x="1117.5" y="1203" width="30" height="30" as="geometry" />
        </mxCell>
        <mxCell id="uUBAp2DgtA_l8BqaeNeY-91" value="S" style="ellipse;whiteSpace=wrap;html=1;aspect=fixed;fillColor=#dae8fc;strokeColor=#6c8ebf;" vertex="1" parent="1">
          <mxGeometry x="1117.5" y="1255" width="30" height="30" as="geometry" />
        </mxCell>
        <mxCell id="uUBAp2DgtA_l8BqaeNeY-92" value="" style="shape=flexArrow;endArrow=classic;html=1;rounded=0;" edge="1" parent="1">
          <mxGeometry width="50" height="50" relative="1" as="geometry">
            <mxPoint x="267.9099999999996" y="766" as="sourcePoint" />
            <mxPoint x="267.9099999999996" y="816" as="targetPoint" />
          </mxGeometry>
        </mxCell>
        <mxCell id="uUBAp2DgtA_l8BqaeNeY-93" value="AttentionCov" style="rounded=1;whiteSpace=wrap;html=1;" vertex="1" parent="1">
          <mxGeometry x="210" y="701" width="130" height="60" as="geometry" />
        </mxCell>
        <mxCell id="uUBAp2DgtA_l8BqaeNeY-94" value="AttentionConv" style="rounded=1;whiteSpace=wrap;html=1;" vertex="1" parent="1">
          <mxGeometry x="746.5" y="699" width="130" height="60" as="geometry" />
        </mxCell>
        <mxCell id="uUBAp2DgtA_l8BqaeNeY-95" value="" style="shape=flexArrow;endArrow=classic;html=1;rounded=0;" edge="1" parent="1">
          <mxGeometry width="50" height="50" relative="1" as="geometry">
            <mxPoint x="813.5" y="765" as="sourcePoint" />
            <mxPoint x="813.5" y="815" as="targetPoint" />
          </mxGeometry>
        </mxCell>
        <mxCell id="uUBAp2DgtA_l8BqaeNeY-96" value="" style="shape=flexArrow;endArrow=classic;html=1;rounded=0;" edge="1" parent="1">
          <mxGeometry width="50" height="50" relative="1" as="geometry">
            <mxPoint x="547.9099999999994" y="767" as="sourcePoint" />
            <mxPoint x="547.9099999999994" y="817" as="targetPoint" />
          </mxGeometry>
        </mxCell>
        <mxCell id="uUBAp2DgtA_l8BqaeNeY-97" value="AttentionConv" style="rounded=1;whiteSpace=wrap;html=1;" vertex="1" parent="1">
          <mxGeometry x="482.5" y="701" width="130" height="60" as="geometry" />
        </mxCell>
        <mxCell id="uUBAp2DgtA_l8BqaeNeY-98" value="" style="shape=flexArrow;endArrow=classic;html=1;rounded=0;" edge="1" parent="1">
          <mxGeometry width="50" height="50" relative="1" as="geometry">
            <mxPoint x="1082.9099999999999" y="763" as="sourcePoint" />
            <mxPoint x="1082.9099999999999" y="813" as="targetPoint" />
          </mxGeometry>
        </mxCell>
        <mxCell id="uUBAp2DgtA_l8BqaeNeY-99" value="AttentionConv" style="rounded=1;whiteSpace=wrap;html=1;" vertex="1" parent="1">
          <mxGeometry x="1017.5" y="697" width="130" height="60" as="geometry" />
        </mxCell>
        <mxCell id="uUBAp2DgtA_l8BqaeNeY-100" value="" style="group" vertex="1" connectable="0" parent="1">
          <mxGeometry x="780" y="1131" width="161" height="120" as="geometry" />
        </mxCell>
        <mxCell id="uUBAp2DgtA_l8BqaeNeY-101" value="T" style="ellipse;whiteSpace=wrap;html=1;aspect=fixed;fillColor=#d5e8d4;strokeColor=#82b366;" vertex="1" parent="uUBAp2DgtA_l8BqaeNeY-100">
          <mxGeometry y="40" width="30" height="30" as="geometry" />
        </mxCell>
        <mxCell id="uUBAp2DgtA_l8BqaeNeY-102" value="T" style="ellipse;whiteSpace=wrap;html=1;aspect=fixed;fillColor=#d5e8d4;strokeColor=#82b366;" vertex="1" parent="uUBAp2DgtA_l8BqaeNeY-100">
          <mxGeometry x="70" width="30" height="30" as="geometry" />
        </mxCell>
        <mxCell id="uUBAp2DgtA_l8BqaeNeY-103" value="" style="endArrow=none;html=1;rounded=0;" edge="1" parent="uUBAp2DgtA_l8BqaeNeY-100" source="uUBAp2DgtA_l8BqaeNeY-102" target="uUBAp2DgtA_l8BqaeNeY-101">
          <mxGeometry width="50" height="50" relative="1" as="geometry">
            <mxPoint x="-321.2128245497388" y="230.90878947868327" as="sourcePoint" />
            <mxPoint x="-278.8145087659991" y="249.1554001374618" as="targetPoint" />
          </mxGeometry>
        </mxCell>
        <mxCell id="uUBAp2DgtA_l8BqaeNeY-104" value="T" style="ellipse;whiteSpace=wrap;html=1;aspect=fixed;fillColor=#d5e8d4;strokeColor=#82b366;" vertex="1" parent="uUBAp2DgtA_l8BqaeNeY-100">
          <mxGeometry x="60" y="90" width="30" height="30" as="geometry" />
        </mxCell>
        <mxCell id="uUBAp2DgtA_l8BqaeNeY-105" value="T" style="ellipse;whiteSpace=wrap;html=1;aspect=fixed;fillColor=#d5e8d4;strokeColor=#82b366;" vertex="1" parent="uUBAp2DgtA_l8BqaeNeY-100">
          <mxGeometry x="131" y="40" width="30" height="30" as="geometry" />
        </mxCell>
        <mxCell id="uUBAp2DgtA_l8BqaeNeY-106" value="" style="endArrow=none;html=1;rounded=0;" edge="1" parent="uUBAp2DgtA_l8BqaeNeY-100" source="uUBAp2DgtA_l8BqaeNeY-104" target="uUBAp2DgtA_l8BqaeNeY-102">
          <mxGeometry width="50" height="50" relative="1" as="geometry">
            <mxPoint x="-260.2128245497388" y="270.9087894786833" as="sourcePoint" />
            <mxPoint x="-217.8145087659991" y="289.1554001374618" as="targetPoint" />
          </mxGeometry>
        </mxCell>
        <mxCell id="uUBAp2DgtA_l8BqaeNeY-107" value="" style="endArrow=none;html=1;rounded=0;" edge="1" parent="uUBAp2DgtA_l8BqaeNeY-100" source="uUBAp2DgtA_l8BqaeNeY-105" target="uUBAp2DgtA_l8BqaeNeY-102">
          <mxGeometry width="50" height="50" relative="1" as="geometry">
            <mxPoint x="87.5434872662604" y="90.07962309282016" as="sourcePoint" />
            <mxPoint x="93.34352710880466" y="39.9082560207612" as="targetPoint" />
          </mxGeometry>
        </mxCell>
        <mxCell id="uUBAp2DgtA_l8BqaeNeY-108" value="" style="endArrow=none;html=1;rounded=0;" edge="1" parent="uUBAp2DgtA_l8BqaeNeY-100" source="uUBAp2DgtA_l8BqaeNeY-104" target="uUBAp2DgtA_l8BqaeNeY-101">
          <mxGeometry width="50" height="50" relative="1" as="geometry">
            <mxPoint x="81.9581516390756" y="32.41014111416143" as="sourcePoint" />
            <mxPoint x="38.00879645251257" y="57.53198722170555" as="targetPoint" />
          </mxGeometry>
        </mxCell>
        <mxCell id="uUBAp2DgtA_l8BqaeNeY-109" value="" style="endArrow=none;html=1;rounded=0;" edge="1" parent="uUBAp2DgtA_l8BqaeNeY-100" source="uUBAp2DgtA_l8BqaeNeY-105" target="uUBAp2DgtA_l8BqaeNeY-104">
          <mxGeometry width="50" height="50" relative="1" as="geometry">
            <mxPoint x="73.43886522158346" y="105.44279524984222" as="sourcePoint" />
            <mxPoint x="36.5538103533479" y="74.56605803449224" as="targetPoint" />
          </mxGeometry>
        </mxCell>
        <mxCell id="uUBAp2DgtA_l8BqaeNeY-110" value="" style="group" vertex="1" connectable="0" parent="1">
          <mxGeometry x="219" y="1123" width="161" height="120" as="geometry" />
        </mxCell>
        <mxCell id="uUBAp2DgtA_l8BqaeNeY-111" value="T" style="ellipse;whiteSpace=wrap;html=1;aspect=fixed;fillColor=#fff2cc;strokeColor=#d6b656;" vertex="1" parent="uUBAp2DgtA_l8BqaeNeY-110">
          <mxGeometry y="40" width="30" height="30" as="geometry" />
        </mxCell>
        <mxCell id="uUBAp2DgtA_l8BqaeNeY-112" value="T" style="ellipse;whiteSpace=wrap;html=1;aspect=fixed;fillColor=#fff2cc;strokeColor=#d6b656;" vertex="1" parent="uUBAp2DgtA_l8BqaeNeY-110">
          <mxGeometry x="70" width="30" height="30" as="geometry" />
        </mxCell>
        <mxCell id="uUBAp2DgtA_l8BqaeNeY-113" value="" style="endArrow=none;html=1;rounded=0;" edge="1" parent="uUBAp2DgtA_l8BqaeNeY-110" source="uUBAp2DgtA_l8BqaeNeY-112" target="uUBAp2DgtA_l8BqaeNeY-111">
          <mxGeometry width="50" height="50" relative="1" as="geometry">
            <mxPoint x="-321.2128245497388" y="230.90878947868327" as="sourcePoint" />
            <mxPoint x="-278.8145087659991" y="249.1554001374618" as="targetPoint" />
          </mxGeometry>
        </mxCell>
        <mxCell id="uUBAp2DgtA_l8BqaeNeY-114" value="T" style="ellipse;whiteSpace=wrap;html=1;aspect=fixed;fillColor=#fff2cc;strokeColor=#d6b656;" vertex="1" parent="uUBAp2DgtA_l8BqaeNeY-110">
          <mxGeometry x="60" y="90" width="30" height="30" as="geometry" />
        </mxCell>
        <mxCell id="uUBAp2DgtA_l8BqaeNeY-115" value="T" style="ellipse;whiteSpace=wrap;html=1;aspect=fixed;fillColor=#fff2cc;strokeColor=#d6b656;" vertex="1" parent="uUBAp2DgtA_l8BqaeNeY-110">
          <mxGeometry x="131" y="40" width="30" height="30" as="geometry" />
        </mxCell>
        <mxCell id="uUBAp2DgtA_l8BqaeNeY-116" value="" style="endArrow=none;html=1;rounded=0;" edge="1" parent="uUBAp2DgtA_l8BqaeNeY-110" source="uUBAp2DgtA_l8BqaeNeY-114" target="uUBAp2DgtA_l8BqaeNeY-112">
          <mxGeometry width="50" height="50" relative="1" as="geometry">
            <mxPoint x="-260.2128245497388" y="270.9087894786833" as="sourcePoint" />
            <mxPoint x="-217.8145087659991" y="289.1554001374618" as="targetPoint" />
          </mxGeometry>
        </mxCell>
        <mxCell id="uUBAp2DgtA_l8BqaeNeY-117" value="" style="endArrow=none;html=1;rounded=0;" edge="1" parent="uUBAp2DgtA_l8BqaeNeY-110" source="uUBAp2DgtA_l8BqaeNeY-115" target="uUBAp2DgtA_l8BqaeNeY-112">
          <mxGeometry width="50" height="50" relative="1" as="geometry">
            <mxPoint x="87.5434872662604" y="90.07962309282016" as="sourcePoint" />
            <mxPoint x="93.34352710880466" y="39.9082560207612" as="targetPoint" />
          </mxGeometry>
        </mxCell>
        <mxCell id="uUBAp2DgtA_l8BqaeNeY-118" value="" style="endArrow=none;html=1;rounded=0;" edge="1" parent="uUBAp2DgtA_l8BqaeNeY-110" source="uUBAp2DgtA_l8BqaeNeY-114" target="uUBAp2DgtA_l8BqaeNeY-111">
          <mxGeometry width="50" height="50" relative="1" as="geometry">
            <mxPoint x="81.9581516390756" y="32.41014111416143" as="sourcePoint" />
            <mxPoint x="38.00879645251257" y="57.53198722170555" as="targetPoint" />
          </mxGeometry>
        </mxCell>
        <mxCell id="uUBAp2DgtA_l8BqaeNeY-119" value="" style="endArrow=none;html=1;rounded=0;" edge="1" parent="uUBAp2DgtA_l8BqaeNeY-110" source="uUBAp2DgtA_l8BqaeNeY-115" target="uUBAp2DgtA_l8BqaeNeY-114">
          <mxGeometry width="50" height="50" relative="1" as="geometry">
            <mxPoint x="73.43886522158346" y="105.44279524984222" as="sourcePoint" />
            <mxPoint x="36.5538103533479" y="74.56605803449224" as="targetPoint" />
          </mxGeometry>
        </mxCell>
        <mxCell id="uUBAp2DgtA_l8BqaeNeY-120" value="" style="group" vertex="1" connectable="0" parent="1">
          <mxGeometry x="549.5" y="1133" width="161" height="120" as="geometry" />
        </mxCell>
        <mxCell id="uUBAp2DgtA_l8BqaeNeY-121" value="T" style="ellipse;whiteSpace=wrap;html=1;aspect=fixed;fillColor=#d5e8d4;strokeColor=#82b366;" vertex="1" parent="uUBAp2DgtA_l8BqaeNeY-120">
          <mxGeometry y="40" width="30" height="30" as="geometry" />
        </mxCell>
        <mxCell id="uUBAp2DgtA_l8BqaeNeY-122" value="T" style="ellipse;whiteSpace=wrap;html=1;aspect=fixed;fillColor=#d5e8d4;strokeColor=#82b366;" vertex="1" parent="uUBAp2DgtA_l8BqaeNeY-120">
          <mxGeometry x="70" width="30" height="30" as="geometry" />
        </mxCell>
        <mxCell id="uUBAp2DgtA_l8BqaeNeY-123" value="" style="endArrow=none;html=1;rounded=0;" edge="1" parent="uUBAp2DgtA_l8BqaeNeY-120" source="uUBAp2DgtA_l8BqaeNeY-122" target="uUBAp2DgtA_l8BqaeNeY-121">
          <mxGeometry width="50" height="50" relative="1" as="geometry">
            <mxPoint x="-321.2128245497388" y="230.90878947868327" as="sourcePoint" />
            <mxPoint x="-278.8145087659991" y="249.1554001374618" as="targetPoint" />
          </mxGeometry>
        </mxCell>
        <mxCell id="uUBAp2DgtA_l8BqaeNeY-124" value="T" style="ellipse;whiteSpace=wrap;html=1;aspect=fixed;fillColor=#d5e8d4;strokeColor=#82b366;" vertex="1" parent="uUBAp2DgtA_l8BqaeNeY-120">
          <mxGeometry x="60" y="90" width="30" height="30" as="geometry" />
        </mxCell>
        <mxCell id="uUBAp2DgtA_l8BqaeNeY-125" value="T" style="ellipse;whiteSpace=wrap;html=1;aspect=fixed;fillColor=#d5e8d4;strokeColor=#82b366;" vertex="1" parent="uUBAp2DgtA_l8BqaeNeY-120">
          <mxGeometry x="131" y="40" width="30" height="30" as="geometry" />
        </mxCell>
        <mxCell id="uUBAp2DgtA_l8BqaeNeY-126" value="" style="endArrow=none;html=1;rounded=0;" edge="1" parent="uUBAp2DgtA_l8BqaeNeY-120" source="uUBAp2DgtA_l8BqaeNeY-124" target="uUBAp2DgtA_l8BqaeNeY-122">
          <mxGeometry width="50" height="50" relative="1" as="geometry">
            <mxPoint x="-260.2128245497388" y="270.9087894786833" as="sourcePoint" />
            <mxPoint x="-217.8145087659991" y="289.1554001374618" as="targetPoint" />
          </mxGeometry>
        </mxCell>
        <mxCell id="uUBAp2DgtA_l8BqaeNeY-127" value="" style="endArrow=none;html=1;rounded=0;" edge="1" parent="uUBAp2DgtA_l8BqaeNeY-120" source="uUBAp2DgtA_l8BqaeNeY-125" target="uUBAp2DgtA_l8BqaeNeY-122">
          <mxGeometry width="50" height="50" relative="1" as="geometry">
            <mxPoint x="87.5434872662604" y="90.07962309282016" as="sourcePoint" />
            <mxPoint x="93.34352710880466" y="39.9082560207612" as="targetPoint" />
          </mxGeometry>
        </mxCell>
        <mxCell id="uUBAp2DgtA_l8BqaeNeY-128" value="" style="endArrow=none;html=1;rounded=0;" edge="1" parent="uUBAp2DgtA_l8BqaeNeY-120" source="uUBAp2DgtA_l8BqaeNeY-124" target="uUBAp2DgtA_l8BqaeNeY-121">
          <mxGeometry width="50" height="50" relative="1" as="geometry">
            <mxPoint x="81.9581516390756" y="32.41014111416143" as="sourcePoint" />
            <mxPoint x="38.00879645251257" y="57.53198722170555" as="targetPoint" />
          </mxGeometry>
        </mxCell>
        <mxCell id="uUBAp2DgtA_l8BqaeNeY-129" value="" style="endArrow=none;html=1;rounded=0;" edge="1" parent="uUBAp2DgtA_l8BqaeNeY-120" source="uUBAp2DgtA_l8BqaeNeY-125" target="uUBAp2DgtA_l8BqaeNeY-124">
          <mxGeometry width="50" height="50" relative="1" as="geometry">
            <mxPoint x="73.43886522158346" y="105.44279524984222" as="sourcePoint" />
            <mxPoint x="36.5538103533479" y="74.56605803449224" as="targetPoint" />
          </mxGeometry>
        </mxCell>
        <mxCell id="uUBAp2DgtA_l8BqaeNeY-130" value="" style="endArrow=classic;html=1;rounded=0;entryX=-0.019;entryY=0.481;entryDx=0;entryDy=0;entryPerimeter=0;" edge="1" parent="1" target="uUBAp2DgtA_l8BqaeNeY-83">
          <mxGeometry width="50" height="50" relative="1" as="geometry">
            <mxPoint x="620" y="931" as="sourcePoint" />
            <mxPoint x="510" y="870" as="targetPoint" />
          </mxGeometry>
        </mxCell>
        <mxCell id="uUBAp2DgtA_l8BqaeNeY-131" value="" style="endArrow=classic;html=1;rounded=0;entryX=-0.019;entryY=0.481;entryDx=0;entryDy=0;entryPerimeter=0;" edge="1" parent="1">
          <mxGeometry width="50" height="50" relative="1" as="geometry">
            <mxPoint x="710.5" y="930.3699999999999" as="sourcePoint" />
            <mxPoint x="739.3600000000001" y="930" as="targetPoint" />
          </mxGeometry>
        </mxCell>
      </root>
    </mxGraphModel>
  </diagram>
</mxfile>
